<svg width="40" height="40" viewBox="0 0 40 40" fill="none" xmlns="http://www.w3.org/2000/svg">
<path fill-rule="evenodd" clip-rule="evenodd" d="M20.1799 39.1591C30.9562 39.1591 39.6921 30.4232 39.6921 19.6469C39.6921 8.87068 30.9562 0.134766 20.1799 0.134766C9.40361 0.134766 0.667725 8.87068 0.667725 19.6469C0.667725 30.4232 9.40361 39.1591 20.1799 39.1591ZM26.2671 9.22437C26.5634 8.17189 25.542 7.54953 24.6092 8.21408L11.5878 17.4904C10.5762 18.2111 10.7354 19.6469 11.8269 19.6469H15.2557V19.6204H21.9385L16.4933 21.5417L14.0928 30.0696C13.7965 31.1221 14.8178 31.7444 15.7507 31.0798L28.772 21.8035C29.7836 21.0828 29.6244 19.6469 28.533 19.6469H23.3332L26.2671 9.22437Z" fill="#1232DB"/>
</svg>
